<svg xmlns="http://www.w3.org/2000/svg" viewBox="0 0 24 24" width="24" height="24"><path fill="currentColor" d="M12 7a5 5 0 1 0 0 10 5 5 0 0 0 0-10zm0-5a1 1 0 0 0 1-1V1a1 1 0 0 0-2 0v1a1 1 0 0 0 1 1zm0 19a1 1 0 0 0-1 1v1a1 1 0 0 0 2 0v-1a1 1 0 0 0-1-1zm10-10h-1a1 1 0 0 0 0 2h1a1 1 0 0 0 0-2zM3 12a1 1 0 0 0-1-1H1a1 1 0 0 0 0 2h1a1 1 0 0 0 1-1zm15.66-7.07l.7-.7a1 1 0 1 0-1.41-1.42l-.71.71a1 1 0 0 0 1.42 1.41zM4.93 17.66l-.7.7a1 1 0 1 0 1.41 1.41l.71-.7a1 1 0 0 0-1.42-1.42zm14.14 0a1 1 0 0 0-1.42 1.42l.71.7a1 1 0 0 0 1.42-1.41l-.71-.7zM4.93 6.34a1 1 0 0 0 1.42-1.41l-.71-.7a1 1 0 0 0-1.41 1.41l.7 1.41z"/></svg>